<mxfile host="app.diagrams.net" modified="2022-07-01T15:43:52.446Z" agent="5.0 (Windows NT 10.0; Win64; x64) AppleWebKit/537.36 (KHTML, like Gecko) Chrome/103.0.0.0 Safari/537.36" etag="uv7op03X26EaXiuK9_hm" version="20.0.4" type="github">
  <diagram id="i4jisw6mFgdKXNxE7GT4" name="Page-1">
    <mxGraphModel dx="1483" dy="770" grid="1" gridSize="10" guides="1" tooltips="1" connect="1" arrows="1" fold="1" page="1" pageScale="1" pageWidth="850" pageHeight="1100" math="0" shadow="0">
      <root>
        <mxCell id="0" />
        <mxCell id="1" parent="0" />
        <mxCell id="4sy7d_P3TAI5aruT7L1Y-54" style="edgeStyle=orthogonalEdgeStyle;rounded=0;orthogonalLoop=1;jettySize=auto;html=1;entryX=0;entryY=0.5;entryDx=0;entryDy=0;" parent="1" source="6u8qPPc9yaK2D2z3NSSo-8" target="4sy7d_P3TAI5aruT7L1Y-53" edge="1">
          <mxGeometry relative="1" as="geometry" />
        </mxCell>
        <mxCell id="6u8qPPc9yaK2D2z3NSSo-8" value="Regular Timetable" style="html=1;verticalLabelPosition=bottom;align=center;labelBackgroundColor=#ffffff;verticalAlign=top;strokeWidth=2;strokeColor=#000000;shadow=0;dashed=0;shape=mxgraph.ios7.icons.data;fontStyle=1" parent="1" vertex="1">
          <mxGeometry x="200" y="690" width="41.24" height="50" as="geometry" />
        </mxCell>
        <mxCell id="4sy7d_P3TAI5aruT7L1Y-50" style="edgeStyle=orthogonalEdgeStyle;rounded=0;orthogonalLoop=1;jettySize=auto;html=1;" parent="1" source="6u8qPPc9yaK2D2z3NSSo-13" edge="1">
          <mxGeometry relative="1" as="geometry">
            <mxPoint x="446.81999999999994" y="460" as="targetPoint" />
          </mxGeometry>
        </mxCell>
        <mxCell id="6u8qPPc9yaK2D2z3NSSo-13" value="DoS Config" style="outlineConnect=0;fontColor=#232F3E;gradientColor=none;strokeColor=#000000;fillColor=none;dashed=0;verticalLabelPosition=middle;verticalAlign=bottom;align=center;html=1;whiteSpace=wrap;fontSize=10;fontStyle=1;spacing=3;shape=mxgraph.aws4.productIcon;prIcon=mxgraph.aws4.config;" parent="1" vertex="1">
          <mxGeometry x="402.82" y="340" width="88" height="90" as="geometry" />
        </mxCell>
        <mxCell id="4sy7d_P3TAI5aruT7L1Y-1" value="" style="group" parent="1" vertex="1" connectable="0">
          <mxGeometry x="278" y="339.99999999999994" width="142" height="100" as="geometry" />
        </mxCell>
        <mxCell id="6u8qPPc9yaK2D2z3NSSo-44" value="" style="html=1;verticalLabelPosition=bottom;align=center;labelBackgroundColor=#ffffff;verticalAlign=top;strokeWidth=2;strokeColor=#000000;shadow=0;dashed=0;shape=mxgraph.ios7.icons.map;fillColor=none;gradientColor=none;fontSize=10;fontColor=#000000;" parent="4sy7d_P3TAI5aruT7L1Y-1" vertex="1">
          <mxGeometry x="12.199999999999992" y="-5" width="30" height="30" as="geometry" />
        </mxCell>
        <mxCell id="6u8qPPc9yaK2D2z3NSSo-45" value="Rail Corridor" style="text;html=1;strokeColor=none;fillColor=none;align=center;verticalAlign=middle;whiteSpace=wrap;rounded=0;labelBackgroundColor=none;fontColor=#000000;opacity=0;fontSize=10;fontStyle=1" parent="4sy7d_P3TAI5aruT7L1Y-1" vertex="1">
          <mxGeometry x="-18" y="25" width="120" height="20" as="geometry" />
        </mxCell>
        <mxCell id="4sy7d_P3TAI5aruT7L1Y-5" value="" style="aspect=fixed;html=1;points=[];align=center;image;fontSize=12;image=img/lib/mscae/Resource_Graph_Explorer.svg;strokeColor=#000000;fillColor=none;gradientColor=#ffffff;" parent="4sy7d_P3TAI5aruT7L1Y-1" vertex="1">
          <mxGeometry x="52.199999999999996" width="19.6" height="20" as="geometry" />
        </mxCell>
        <mxCell id="6u8qPPc9yaK2D2z3NSSo-11" value="Normal Config" style="outlineConnect=0;fontColor=#232F3E;gradientColor=none;strokeColor=#000000;fillColor=none;dashed=0;verticalLabelPosition=middle;verticalAlign=bottom;align=center;html=1;whiteSpace=wrap;fontSize=10;fontStyle=1;spacing=3;shape=mxgraph.aws4.productIcon;prIcon=mxgraph.aws4.config;" parent="4sy7d_P3TAI5aruT7L1Y-1" vertex="1">
          <mxGeometry x="-87.99999999999994" y="5.684341886080802e-14" width="88" height="90" as="geometry" />
        </mxCell>
        <mxCell id="DnIXDopoK6Tt0Jn4BAPT-2" value="" style="shape=image;html=1;verticalAlign=top;verticalLabelPosition=bottom;labelBackgroundColor=#ffffff;imageAspect=0;aspect=fixed;image=https://cdn1.iconfinder.com/data/icons/bootstrap-vol-3/16/hourglass-split-128.png;fontColor=#000000;strokeColor=#000000;fillColor=#000000;" vertex="1" parent="4sy7d_P3TAI5aruT7L1Y-1">
          <mxGeometry x="71.8" y="50" width="30" height="30" as="geometry" />
        </mxCell>
        <mxCell id="4sy7d_P3TAI5aruT7L1Y-3" value="" style="shape=mxgraph.signs.transportation.train_2;html=1;fillColor=#000000;strokeColor=none;verticalLabelPosition=bottom;verticalAlign=top;align=center;" parent="4sy7d_P3TAI5aruT7L1Y-1" vertex="1">
          <mxGeometry x="16.54000000000003" y="45.00000000000006" width="30.91" height="40" as="geometry" />
        </mxCell>
        <mxCell id="4sy7d_P3TAI5aruT7L1Y-4" value="Trains" style="text;html=1;strokeColor=none;fillColor=none;align=center;verticalAlign=middle;whiteSpace=wrap;rounded=0;labelBackgroundColor=none;fontColor=#000000;opacity=0;fontSize=10;fontStyle=1" parent="4sy7d_P3TAI5aruT7L1Y-1" vertex="1">
          <mxGeometry x="-28.000000000000007" y="80" width="120" height="20" as="geometry" />
        </mxCell>
        <mxCell id="DnIXDopoK6Tt0Jn4BAPT-4" value="Time Window" style="text;html=1;strokeColor=none;fillColor=none;align=center;verticalAlign=middle;whiteSpace=wrap;rounded=0;labelBackgroundColor=none;fontColor=#000000;opacity=0;fontSize=10;fontStyle=1" vertex="1" parent="4sy7d_P3TAI5aruT7L1Y-1">
          <mxGeometry x="27" y="80" width="120" height="20" as="geometry" />
        </mxCell>
        <mxCell id="4sy7d_P3TAI5aruT7L1Y-26" value="" style="html=1;verticalLabelPosition=bottom;align=center;labelBackgroundColor=#ffffff;verticalAlign=top;strokeWidth=2;strokeColor=#000000;shadow=0;dashed=0;shape=mxgraph.ios7.icons.clock;fillColor=#ffffff;gradientColor=none;" parent="1" vertex="1">
          <mxGeometry x="513.9799999999999" y="327.5" width="30" height="30" as="geometry" />
        </mxCell>
        <mxCell id="4sy7d_P3TAI5aruT7L1Y-27" value="" style="html=1;verticalLabelPosition=bottom;align=center;labelBackgroundColor=#ffffff;verticalAlign=top;strokeWidth=2;strokeColor=#000000;shadow=0;dashed=0;shape=mxgraph.ios7.icons.map;fillColor=#ffffff;gradientColor=none;" parent="1" vertex="1">
          <mxGeometry x="499.99999999999994" y="382.5" width="30" height="30" as="geometry" />
        </mxCell>
        <mxCell id="4sy7d_P3TAI5aruT7L1Y-28" value="" style="html=1;verticalLabelPosition=bottom;align=center;labelBackgroundColor=#ffffff;verticalAlign=top;strokeWidth=2;strokeColor=#000000;shadow=0;dashed=0;shape=mxgraph.ios7.icons.location;fillColor=#ffffff;gradientColor=none;" parent="1" vertex="1">
          <mxGeometry x="539.9999999999999" y="383.33000000000004" width="24" height="30" as="geometry" />
        </mxCell>
        <mxCell id="4sy7d_P3TAI5aruT7L1Y-29" value="DoS Location" style="text;html=1;strokeColor=none;fillColor=none;align=center;verticalAlign=middle;whiteSpace=wrap;rounded=0;labelBackgroundColor=none;fontColor=#000000;opacity=0;fontSize=10;fontStyle=1" parent="1" vertex="1">
          <mxGeometry x="470" y="422.49999999999994" width="120" height="20" as="geometry" />
        </mxCell>
        <mxCell id="4sy7d_P3TAI5aruT7L1Y-30" value="" style="group" parent="1" vertex="1" connectable="0">
          <mxGeometry x="470" y="327.49999999999994" width="124.82" height="90.00000000000006" as="geometry" />
        </mxCell>
        <mxCell id="4sy7d_P3TAI5aruT7L1Y-32" value="DoS Duration" style="text;html=1;strokeColor=none;fillColor=none;align=center;verticalAlign=middle;whiteSpace=wrap;rounded=0;labelBackgroundColor=none;fontColor=#000000;opacity=0;fontSize=10;fontStyle=1" parent="4sy7d_P3TAI5aruT7L1Y-30" vertex="1">
          <mxGeometry y="30" width="120" height="20" as="geometry" />
        </mxCell>
        <mxCell id="4sy7d_P3TAI5aruT7L1Y-43" style="edgeStyle=orthogonalEdgeStyle;rounded=0;orthogonalLoop=1;jettySize=auto;html=1;entryX=0.019;entryY=0.112;entryDx=0;entryDy=0;entryPerimeter=0;" parent="1" source="6u8qPPc9yaK2D2z3NSSo-11" target="6u8qPPc9yaK2D2z3NSSo-8" edge="1">
          <mxGeometry relative="1" as="geometry">
            <mxPoint x="180" y="760" as="targetPoint" />
            <Array as="points">
              <mxPoint x="180" y="385" />
              <mxPoint x="180" y="696" />
            </Array>
          </mxGeometry>
        </mxCell>
        <mxCell id="4sy7d_P3TAI5aruT7L1Y-44" style="edgeStyle=orthogonalEdgeStyle;rounded=0;orthogonalLoop=1;jettySize=auto;html=1;" parent="1" edge="1">
          <mxGeometry relative="1" as="geometry">
            <mxPoint x="180" y="566" as="targetPoint" />
            <mxPoint x="260" y="566" as="sourcePoint" />
            <Array as="points">
              <mxPoint x="230" y="566" />
              <mxPoint x="230" y="566" />
            </Array>
          </mxGeometry>
        </mxCell>
        <mxCell id="4sy7d_P3TAI5aruT7L1Y-48" style="edgeStyle=orthogonalEdgeStyle;rounded=0;orthogonalLoop=1;jettySize=auto;html=1;entryX=0.999;entryY=0.152;entryDx=0;entryDy=0;entryPerimeter=0;" parent="1" source="6u8qPPc9yaK2D2z3NSSo-11" target="4sy7d_P3TAI5aruT7L1Y-45" edge="1">
          <mxGeometry relative="1" as="geometry">
            <mxPoint x="560" y="720" as="targetPoint" />
            <Array as="points">
              <mxPoint x="234" y="460" />
              <mxPoint x="580" y="460" />
              <mxPoint x="580" y="698" />
            </Array>
          </mxGeometry>
        </mxCell>
        <mxCell id="4sy7d_P3TAI5aruT7L1Y-51" style="edgeStyle=orthogonalEdgeStyle;rounded=0;orthogonalLoop=1;jettySize=auto;html=1;exitX=1.001;exitY=0.377;exitDx=0;exitDy=0;exitPerimeter=0;" parent="1" source="6u8qPPc9yaK2D2z3NSSo-34" edge="1">
          <mxGeometry relative="1" as="geometry">
            <mxPoint x="580" y="561" as="targetPoint" />
            <mxPoint x="510" y="566" as="sourcePoint" />
            <Array as="points">
              <mxPoint x="540" y="561" />
              <mxPoint x="540" y="561" />
            </Array>
          </mxGeometry>
        </mxCell>
        <mxCell id="6u8qPPc9yaK2D2z3NSSo-6" value="" style="outlineConnect=0;verticalLabelPosition=bottom;verticalAlign=top;align=center;html=1;fontSize=12;fontStyle=0;aspect=fixed;pointerEvents=1;shape=mxgraph.aws4.simulation;shadow=0;perimeterSpacing=23;strokeWidth=1;fillColor=#000000;strokeColor=#000000;" parent="1" vertex="1">
          <mxGeometry x="230.16" y="489" width="74.38" height="61.03" as="geometry" />
        </mxCell>
        <mxCell id="6u8qPPc9yaK2D2z3NSSo-34" value="" style="rounded=1;arcSize=10;dashed=0;fillColor=none;gradientColor=none;strokeWidth=2;shadow=0;labelBackgroundColor=none;fontSize=10;fontColor=#000000;" parent="1" vertex="1">
          <mxGeometry x="260" y="504.3" width="250" height="150" as="geometry" />
        </mxCell>
        <mxCell id="6u8qPPc9yaK2D2z3NSSo-15" value="" style="pointerEvents=1;verticalLabelPosition=bottom;shadow=0;dashed=0;align=center;html=1;verticalAlign=top;shape=mxgraph.electrical.miscellaneous.shielded_jack_plug;labelBackgroundColor=none;strokeColor=#000000;fillColor=none;gradientColor=none;fontSize=10;fontColor=#000000;strokeWidth=2;" parent="1" vertex="1">
          <mxGeometry x="325" y="519.9875" width="20.34375" height="40.6875" as="geometry" />
        </mxCell>
        <mxCell id="6u8qPPc9yaK2D2z3NSSo-32" value="Train Operation Logics" style="text;html=1;strokeColor=none;fillColor=none;align=center;verticalAlign=middle;whiteSpace=wrap;rounded=0;labelBackgroundColor=none;fontColor=#000000;opacity=0;fontSize=10;fontStyle=1" parent="1" vertex="1">
          <mxGeometry x="376" y="555.55" width="120" height="20" as="geometry" />
        </mxCell>
        <mxCell id="6u8qPPc9yaK2D2z3NSSo-22" value="Signaling Logics" style="text;html=1;strokeColor=none;fillColor=none;align=center;verticalAlign=middle;whiteSpace=wrap;rounded=0;labelBackgroundColor=none;fontColor=#000000;opacity=0;fontSize=10;fontStyle=1" parent="1" vertex="1">
          <mxGeometry x="270" y="556.8" width="105" height="17.5" as="geometry" />
        </mxCell>
        <mxCell id="4sy7d_P3TAI5aruT7L1Y-2" value="" style="pointerEvents=1;shadow=0;dashed=0;html=1;strokeColor=#000000;fillColor=none;labelPosition=center;verticalLabelPosition=bottom;verticalAlign=top;align=center;outlineConnect=0;shape=stencil(tVnbchs3DP0avXJIgtfHjtv8h+qotaaK1iM7ifv3xWpFEATXliinmc5kis1yD4CDA4DawMPL0/Z5t7F6+/K8e3zdwO8ba39sT/vtnwc0W3zytBi9y0ovluP2224xPkzH19N0OOxOy5MX/L9/dj/3X18vb+2PT7vT/nV5+rOclJT1swn+2Ojf8MH8Hzw8TscjYthPx5eN/SIe/jWddn+fpu/Hr82D8vh5O3+xe1Aef5t+zE6+LQB0ceRf6dqXD8447I8fnKGHT6hh+LWH3ObN42F62a3/E3hA+zsBxUTsD4clze+9vTx9nA4TskIvf5+RHafj7l1gy8krb20s6POfD14dSr/xSenYxAxMUMENxn7lnJxVjNdj//204DH9QW/2YsMsXvL6BsVkFITL9y6vpqzAXkyXN5NRsTACpGkIFoAyVsCyTiUBq5oIFYNQUCXlU4sqR5XtaMzZx4ZSJ53LXuXc+oaoc+tatRTPwHrlWs8AM2WFaxCdCsOYGIASbm2VkTTo4+3wn6XQwnKINLSoHGBePh1wN/s77hxnTvEOELZkE5I8iKA7T0yp7gWvNAj/qm2s/LQKkue8JKG3ETQOw1a4SUJDnU7m8wJzWwo7D5NWWQoMalUSfOc28hDzpiW3NKhkN4LyVvnrHnbQOIwCLflO+1ZiD96q2AKbyxNkLd4oEO83xHfaiNM1WCUuuqAcK42gsqwN45SXBGS2Wvq6BqZEIUUVQKYHUzYukw0MW+F20LBsfZD5ScoZKZZRaSegVdtY2bo+aiEWElZozEbQOAxb4YaO1E7BHaTmMEhR4orY6a7BJOwconc2OYYxqo2yep4ociv4WFX3sBpMUlHIKuBRIILAbSUKaFVCVU1GNonSNhHLfZw5DYqCzHiVhOg0sSipnadrCQ0LArKAZrBnXe+SreCvBB/lUV8fkqSH/KDioU1AASQPURWsYGDWtZLLZITSLoq2moZwBSgDcsXlg4pB4GI2GioZiMur2Sgth8qkzHDY+deG0tf5h8xyTviHEmqFe9VEvMLO5XPrnsGhAYSOz5S/J/AMRMGFo4QcANbiblFpspBxOw9zgvGz7zfMhVdD7/wta3DnIGdRQRkoVg3jpdq4oGnKrvMl1rRYo5htrBixyCQpeIF+IDcNDJovE7EHasx+gdjcqvTDTQWD7qD9FK4sd6zK1ucyR9dYupU0o42auek+ybqKLfrKSgxUGG/6/JNV26hBMQa6bo03qItWpNngjOJlV6m2MQaiKoJoeNqQ59SKma02vNgLE2ZBFse5F48rZgPDVrhF93jdEoVorUm0xJMy8STDGNdGae0sLuylJdX9zI3Tet6p5cDogqOt9w16W13QgDb0klvsglFQZx5lzR3IOIqCDJkubyWaWNCU7WvOaENDGHIBwA0Nrg85rXytBD+ne+ZUfhB5aKDaaOL2dcqr12/Wtg4mo4KYSappqDLmKypZtMj4KHBxG7uAC4IT81gnZgmcLUevJJqPlezFMlcOuYfE0l64h1pjxWbJbfwWTnZFwGFJXgjNnL/jQmg+SlYjhNRV41rknU41znQVh0u0nCXuuItbCf4sHDdconYech6RaMSy6zLOu66q5/HDCdU9q4QQHGYbKkcsvXKlTeXIS/QDwWlg8GlJXoRi1P6PfqADbbx0I2TL7DeWn1xGkJqfmOStGDPxq2ArbzbmXwlW7oP8HVXLQBBvfFm5Gq3M3XVdoLGVapZN/9DZxmiTaUwh2gDIG31mql2KgWB3QSCBoZjE8YhxEERnIPmqEWPcIRbEup3blfzCGMk+85Nf/4ssWrofZc/W5Sfls+E/);gradientDirection=north;" parent="1" vertex="1">
          <mxGeometry x="417.98" y="518.28" width="42.4" height="42.4" as="geometry" />
        </mxCell>
        <mxCell id="6u8qPPc9yaK2D2z3NSSo-46" value="" style="group" parent="1" vertex="1" connectable="0">
          <mxGeometry x="274" y="580" width="112" height="55.44" as="geometry" />
        </mxCell>
        <mxCell id="6u8qPPc9yaK2D2z3NSSo-23" value="" style="pointerEvents=1;shadow=0;dashed=0;html=1;strokeColor=none;labelPosition=center;verticalLabelPosition=bottom;verticalAlign=top;align=center;fillColor=#515151;shape=mxgraph.mscae.system_center.admin_console;labelBackgroundColor=none;fontSize=10;fontColor=#000000;" parent="6u8qPPc9yaK2D2z3NSSo-46" vertex="1">
          <mxGeometry x="27.829999999999984" width="52.81" height="37.181668724642805" as="geometry" />
        </mxCell>
        <mxCell id="6u8qPPc9yaK2D2z3NSSo-39" value="DoS Response Logics" style="text;html=1;strokeColor=none;fillColor=none;align=center;verticalAlign=middle;whiteSpace=wrap;rounded=0;labelBackgroundColor=none;fontColor=#000000;opacity=0;fontSize=10;fontStyle=1" parent="1" vertex="1">
          <mxGeometry x="384" y="617.3571428571428" width="112" height="18.665714285714287" as="geometry" />
        </mxCell>
        <mxCell id="6u8qPPc9yaK2D2z3NSSo-38" value="" style="pointerEvents=1;shadow=0;dashed=0;html=1;strokeColor=none;fillColor=#505050;labelPosition=center;verticalLabelPosition=bottom;outlineConnect=0;verticalAlign=top;align=center;shape=mxgraph.office.clouds.cloud_disaster;labelBackgroundColor=none;fontSize=10;fontColor=#000000;" parent="1" vertex="1">
          <mxGeometry x="417.98" y="583.69" width="44.04" height="34.67" as="geometry" />
        </mxCell>
        <mxCell id="6u8qPPc9yaK2D2z3NSSo-24" value="Dispatching Logics" style="text;html=1;strokeColor=none;fillColor=none;align=center;verticalAlign=middle;whiteSpace=wrap;rounded=0;labelBackgroundColor=none;fontColor=#000000;opacity=0;fontSize=10;fontStyle=1" parent="1" vertex="1">
          <mxGeometry x="274" y="617.5629299700123" width="112" height="18.25414005997531" as="geometry" />
        </mxCell>
        <mxCell id="4sy7d_P3TAI5aruT7L1Y-25" value="" style="html=1;fillColor=#000000;strokeColor=none;verticalAlign=top;labelPosition=center;verticalLabelPosition=bottom;align=center;spacingTop=-6;fontSize=11;fontStyle=1;fontColor=#999999;shape=mxgraph.gcp2.hexIcon;prIcon=traffic_director;gradientColor=#ffffff;" parent="1" vertex="1">
          <mxGeometry x="344" y="583.69" width="30" height="24.31" as="geometry" />
        </mxCell>
        <mxCell id="4sy7d_P3TAI5aruT7L1Y-55" style="edgeStyle=orthogonalEdgeStyle;rounded=0;orthogonalLoop=1;jettySize=auto;html=1;entryX=1;entryY=0.5;entryDx=0;entryDy=0;" parent="1" source="4sy7d_P3TAI5aruT7L1Y-45" target="4sy7d_P3TAI5aruT7L1Y-53" edge="1">
          <mxGeometry relative="1" as="geometry" />
        </mxCell>
        <mxCell id="4sy7d_P3TAI5aruT7L1Y-45" value="DoS Impacted Timetable" style="html=1;verticalLabelPosition=bottom;align=center;labelBackgroundColor=#ffffff;verticalAlign=top;strokeWidth=2;strokeColor=#000000;shadow=0;dashed=0;shape=mxgraph.ios7.icons.data;fontStyle=1" parent="1" vertex="1">
          <mxGeometry x="520" y="690" width="41.24" height="50" as="geometry" />
        </mxCell>
        <mxCell id="4sy7d_P3TAI5aruT7L1Y-57" value="" style="edgeStyle=orthogonalEdgeStyle;rounded=0;orthogonalLoop=1;jettySize=auto;html=1;" parent="1" source="4sy7d_P3TAI5aruT7L1Y-53" target="4sy7d_P3TAI5aruT7L1Y-59" edge="1">
          <mxGeometry relative="1" as="geometry">
            <mxPoint x="384.9999999999999" y="812.6700000000001" as="targetPoint" />
          </mxGeometry>
        </mxCell>
        <mxCell id="4sy7d_P3TAI5aruT7L1Y-53" value="" style="shape=sumEllipse;perimeter=ellipsePerimeter;whiteSpace=wrap;html=1;backgroundOutline=1;shadow=0;strokeColor=#000000;strokeWidth=1;fillColor=none;gradientColor=none;" parent="1" vertex="1">
          <mxGeometry x="367.33" y="697.3299999999999" width="35.34" height="35.34" as="geometry" />
        </mxCell>
        <mxCell id="4sy7d_P3TAI5aruT7L1Y-59" value="&lt;b&gt;DoS Impact&lt;br&gt;(Delay)&lt;br&gt;&lt;/b&gt;" style="html=1;outlineConnect=0;whiteSpace=wrap;fillColor=#ffffff;shape=mxgraph.archimate3.product;shadow=0;strokeColor=#000000;strokeWidth=1;" parent="1" vertex="1">
          <mxGeometry x="335" y="760" width="100" height="64.3" as="geometry" />
        </mxCell>
        <mxCell id="6u8qPPc9yaK2D2z3NSSo-14" value="Simulator" style="text;html=1;strokeColor=none;fillColor=none;align=center;verticalAlign=middle;whiteSpace=wrap;rounded=0;labelBackgroundColor=none;fontColor=#000000;opacity=0;fontSize=10;fontStyle=1" parent="1" vertex="1">
          <mxGeometry x="220" y="475.69638279692396" width="85.82" height="14.30361720307604" as="geometry" />
        </mxCell>
      </root>
    </mxGraphModel>
  </diagram>
</mxfile>
